# Blender v2.91.2 OBJ File: 'ZAEAR.blend'
# www.blender.org
mtllib ZAEAR.mtl
o Ear_Body.001
v 0.016559 0.163706 -0.013799
v 0.013332 0.152849 -0.015811
v 0.008458 0.154149 -0.014514
v 0.011004 0.164697 -0.012485
v 0.017023 0.171322 -0.009473
v 0.011708 0.172266 -0.008347
v 0.014919 0.176272 -0.003729
v 0.011193 0.176400 -0.002845
v 0.006192 0.140232 -0.011162
v 0.001165 0.141469 -0.009460
v 0.010952 0.177886 0.002302
v -0.000085 0.155148 -0.006931
v 0.003268 0.165777 -0.005216
v 0.004802 0.172822 -0.000503
v 0.005821 0.175927 0.008044
v -0.005179 0.143807 -0.004681
v -0.010407 0.150639 -0.005065
v -0.016156 0.139123 -0.002051
v -0.002299 0.132425 -0.003568
v -0.005514 0.133844 -0.003130
v -0.013234 0.120048 0.008520
v -0.016655 0.122062 0.008319
v -0.017195 0.127342 0.006838
v -0.010796 0.136540 0.000172
v -0.018748 0.118542 0.012452
v -0.025137 0.118979 0.013894
v -0.023821 0.127313 0.004490
v -0.003997 0.164999 0.001455
v -0.006458 0.159184 -0.004884
v -0.010407 0.150639 -0.005065
v -0.000931 0.163607 0.014601
v 0.006303 0.159006 0.000683
v 0.007109 0.172713 0.010268
v 0.011855 0.174638 0.004960
v 0.005821 0.175927 0.008044
v 0.010952 0.177886 0.002302
v 0.015509 0.172942 -0.001089
v 0.014919 0.176272 -0.003729
v 0.016917 0.168808 -0.006383
v 0.017023 0.171322 -0.009473
v 0.016444 0.162333 -0.010100
v 0.016559 0.163706 -0.013799
v 0.013471 0.153094 -0.011787
v 0.013332 0.152849 -0.015811
v 0.007099 0.141328 -0.007942
v 0.006192 0.140232 -0.011162
v -0.002299 0.132425 -0.003568
v -0.000814 0.133751 -0.000343
v -0.009971 0.121882 0.012790
v -0.013234 0.120048 0.008520
v -0.018748 0.118542 0.012452
v -0.015604 0.120087 0.016723
v -0.020826 0.120521 0.019555
v -0.025137 0.118979 0.013894
v -0.012081 0.137572 0.017055
v 0.000014 0.146894 0.001763
v -0.006234 0.151320 0.015542
v 0.000051 0.168868 0.010813
v -0.003997 0.164999 0.001455
vt 0.944745 0.985591
vt 0.944741 0.974842
vt 0.949230 0.974806
vt 0.950096 0.984736
vt 0.947626 0.991402
vt 0.951957 0.989994
vt 0.951675 0.995054
vt 0.954384 0.993310
vt 0.948192 0.962892
vt 0.952883 0.962880
vt 0.958029 0.996819
vt 0.959993 0.974120
vt 0.959419 0.983761
vt 0.959876 0.990384
vt 0.963799 0.995794
vt 0.961353 0.962389
vt 0.967967 0.967077
vt 0.970367 0.956107
vt 0.953796 0.953257
vt 0.957470 0.953873
vt 0.963380 0.939038
vt 0.967056 0.940301
vt 0.968585 0.944241
vt 0.964423 0.954083
vt 0.968408 0.936736
vt 0.973718 0.937099
vt 0.974665 0.943823
vt 0.967153 0.983881
vt 0.967424 0.977874
vt 0.967967 0.967077
vt 0.852798 0.983640
vt 0.871013 0.979595
vt 0.862847 0.992582
vt 0.869909 0.994479
vt 0.863297 0.996340
vt 0.871351 0.998149
vt 0.877404 0.993351
vt 0.880116 0.996671
vt 0.882465 0.990049
vt 0.885751 0.992728
vt 0.885787 0.984838
vt 0.890244 0.986379
vt 0.886504 0.973949
vt 0.890681 0.973302
vt 0.880961 0.960672
vt 0.883682 0.958750
vt 0.874577 0.947795
vt 0.870952 0.950572
vt 0.853994 0.938173
vt 0.857639 0.934493
vt 0.851766 0.931298
vt 0.848458 0.934899
vt 0.842955 0.933065
vt 0.847763 0.926758
vt 0.845151 0.947094
vt 0.868210 0.966563
vt 0.849512 0.969460
vt 0.854832 0.990002
vt 0.967153 0.983881
vn 0.6233 0.1376 -0.7698
vn 0.5176 -0.2738 -0.8106
vn -0.0515 -0.0523 -0.9973
vn -0.0458 0.3247 -0.9447
vn 0.6225 0.5625 -0.5441
vn 0.0448 0.6985 -0.7142
vn 0.5223 0.8335 -0.1800
vn 0.0264 0.9282 -0.3711
vn 0.4074 -0.5591 -0.7221
vn -0.0584 -0.3716 -0.9266
vn 0.4515 0.8923 -0.0051
vn 0.0953 -0.0976 -0.9906
vn 0.0261 0.5128 -0.8581
vn 0.1287 0.9000 -0.4164
vn 0.5635 0.8259 0.0197
vn 0.0223 -0.3527 -0.9355
vn 0.3336 -0.3610 -0.8708
vn 0.2721 -0.5583 -0.7838
vn 0.3922 -0.7650 -0.5109
vn -0.0493 -0.5536 -0.8313
vn 0.4421 -0.8395 -0.3160
vn 0.0925 -0.7500 -0.6549
vn 0.0851 -0.6375 -0.7657
vn -0.0057 -0.5134 -0.8581
vn 0.4539 -0.8676 -0.2030
vn 0.4551 -0.8021 -0.3865
vn 0.3386 -0.7227 -0.6026
vn 0.7482 0.4261 -0.5085
vn 0.4200 0.1067 -0.9012
vn 0.8511 -0.0927 0.5167
vn 0.8774 -0.1294 0.4619
vn 0.8115 0.1518 0.5643
vn 0.8012 0.2889 0.5240
vn 0.4515 0.8923 -0.0052
vn 0.9130 0.1988 0.3561
vn 0.9894 0.0293 0.1422
vn 0.9851 -0.1668 0.0415
vn 0.6233 0.1375 -0.7698
vn 0.9263 -0.3659 0.0898
vn 0.5177 -0.2737 -0.8106
vn 0.8533 -0.5158 0.0760
vn 0.4074 -0.5592 -0.7221
vn 0.7837 -0.5955 0.1767
vn 0.6944 -0.6985 0.1731
vn 0.4420 -0.8395 -0.3160
vn 0.6937 -0.6893 0.2091
vn 0.6279 -0.7783 -0.0063
vn 0.4552 -0.8021 -0.3865
vn 0.7772 -0.5222 0.3511
vn 0.8397 -0.3936 0.3742
vn 0.8086 -0.2779 0.5185
vn 0.8362 0.4867 0.2526
vn 0.7482 0.4261 -0.5086
usemtl Default_OBJ
s 1
f 1/1/1 2/2/2 3/3/3
f 4/4/4 1/1/1 3/3/3
f 5/5/5 1/1/1 4/4/4
f 6/6/6 5/5/5 4/4/4
f 5/5/5 6/6/6 7/7/7
f 6/6/6 8/8/8 7/7/7
f 3/3/3 2/2/2 9/9/9
f 10/10/10 3/3/3 9/9/9
f 7/7/7 8/8/8 11/11/11
f 4/4/4 3/3/3 12/12/12
f 12/12/12 3/3/3 10/10/10
f 13/13/13 4/4/4 12/12/12
f 6/6/6 4/4/4 13/13/13
f 14/14/14 6/6/6 13/13/13
f 8/8/8 6/6/6 14/14/14
f 11/11/11 8/8/8 14/14/14
f 11/11/11 14/14/14 15/15/15
f 16/16/16 12/12/12 10/10/10
f 12/12/12 16/16/16 17/17/17
f 17/17/17 16/16/16 18/18/18
f 9/9/9 19/19/19 10/10/10
f 19/19/19 20/20/20 10/10/10
f 16/16/16 10/10/10 20/20/20
f 19/19/19 21/21/21 20/20/20
f 21/21/21 22/22/22 20/20/20
f 20/20/20 22/22/22 23/23/23
f 24/24/24 20/20/20 23/23/23
f 24/24/24 16/16/16 20/20/20
f 24/24/24 23/23/23 18/18/18
f 16/16/16 24/24/24 18/18/18
f 22/22/22 21/21/21 25/25/25
f 26/26/26 22/22/22 25/25/25
f 22/22/22 26/26/26 27/27/27
f 23/23/23 22/22/22 27/27/27
f 23/23/23 27/27/27 18/18/18
f 13/13/13 28/28/28 14/14/14
f 28/28/28 13/13/13 29/29/29
f 13/13/13 12/12/12 29/29/29
f 30/30/17 29/29/29 12/12/12
f 31/31/30 32/32/31 33/33/32
f 33/33/32 32/32/31 34/34/33
f 35/35/15 33/33/32 34/34/33
f 36/36/34 35/35/15 34/34/33
f 34/34/33 37/37/35 36/36/34
f 34/34/33 32/32/31 37/37/35
f 37/37/35 38/38/7 36/36/34
f 37/37/35 39/39/36 38/38/7
f 37/37/35 32/32/31 39/39/36
f 39/39/36 40/40/5 38/38/7
f 40/40/5 39/39/36 41/41/37
f 32/32/31 41/41/37 39/39/36
f 42/42/38 40/40/5 41/41/37
f 42/42/38 41/41/37 43/43/39
f 32/32/31 43/43/39 41/41/37
f 44/44/40 42/42/38 43/43/39
f 43/43/39 45/45/41 44/44/40
f 45/45/41 46/46/42 44/44/40
f 46/46/42 45/45/41 47/47/19
f 45/45/41 48/48/43 47/47/19
f 48/48/43 49/49/44 47/47/19
f 49/49/44 50/50/45 47/47/19
f 51/51/25 50/50/45 49/49/44
f 52/52/46 51/51/25 49/49/44
f 51/51/25 52/52/46 53/53/47
f 54/54/48 51/51/25 53/53/47
f 49/49/44 55/55/49 52/52/46
f 48/48/43 55/55/49 49/49/44
f 55/55/49 53/53/47 52/52/46
f 48/48/43 56/56/50 55/55/49
f 48/48/43 45/45/41 56/56/50
f 45/45/41 43/43/39 56/56/50
f 43/43/39 32/32/31 56/56/50
f 57/57/51 56/56/50 32/32/31
f 56/56/50 57/57/51 55/55/49
f 31/31/30 57/57/51 32/32/31
f 31/31/30 33/33/32 58/58/52
f 33/33/32 35/35/15 58/58/52
f 15/15/15 14/14/14 59/59/53
